<?xml version="1.0" encoding="UTF-8"?>
<svg width="227px" height="60px" viewBox="0 0 227 60" version="1.1" xmlns="http://www.w3.org/2000/svg" xmlns:xlink="http://www.w3.org/1999/xlink">
    <!-- Generator: Sketch 57.1 (83088) - https://sketch.com -->
    <title>A4</title>
    <desc>Created with Sketch.</desc>
    <g id="Styleguide" stroke="none" stroke-width="1" fill="none" fill-rule="evenodd">
        <g id="A4" transform="translate(-43.000000, -1359.000000)">
            <g id="header" transform="translate(31.000000, 1344.000000)">
                <rect id="Rectangle" stroke="#D6D6D6" x="-0.5" y="-0.5" width="1281" height="91"></rect>
                <g id="logo" transform="translate(12.000000, 15.000000)">
                    <rect id="Rectangle" stroke="#05060F" stroke-width="3" fill="#FFFFFF" x="1.5" y="1.5" width="57" height="57" rx="10"></rect>
                    <g id="delivery-man" stroke-width="1" transform="translate(15.000000, 6.951220)" fill="#000000">
                        <path d="M15.0019194,46.2804878 L14.9993602,46.2804878 C14.4945611,46.2804878 14.0853659,45.8710061 14.0853659,45.3658537 C14.0853659,44.8607012 14.4945611,44.4512195 14.9993602,44.4512195 C15.5041593,44.4512195 15.9146341,44.8607012 15.9146341,45.3658537 C15.9146341,45.8710061 15.5067185,46.2804878 15.0019194,46.2804878 Z" id="Path" fill-rule="nonzero"></path>
                        <path d="M29.317208,33.3765077 L29.317208,29.7724288 C29.317208,29.7674573 29.317208,29.7624858 29.3171174,29.7575143 C29.2758129,27.2505137 28.3305202,25.3955953 26.4273442,24.0868208 C24.8428286,22.9971546 22.8486196,22.4609538 20.9200812,21.9424698 C20.3705325,21.7946801 19.8425417,21.6527659 19.3348409,21.5013606 L19.3348409,19.5885919 C21.4011515,18.1951208 22.7624781,15.8353675 22.7624781,13.164126 L22.7624781,12.1958552 C22.8676414,12.1170341 22.9688193,12.03062 23.0645623,11.9353477 C24.0801451,10.9218813 24.1681888,9.32846478 23.3298711,8.2136698 L23.3298711,4.58834895 C23.3297805,2.05829858 21.2671837,0 18.7319406,0 L11.2681499,0 C8.73290677,0 6.67030997,2.05829858 6.67030997,4.58834895 L6.67030997,8.21376019 C5.83199223,9.32855517 5.92012655,10.9219717 6.9367057,11.9365228 C7.03208643,12.0314336 7.13299253,12.117486 7.23770299,12.1961264 L7.23770299,13.164126 C7.23770299,15.8349155 8.59893898,18.1943073 10.6653401,19.5878688 L10.6653401,21.5013606 C10.1576393,21.6527659 9.62955803,21.7947705 9.08009985,21.9424698 C7.15156143,22.4609538 5.15735251,22.9971546 3.57283686,24.0868208 C1.66957025,25.3955953 0.724368127,27.2505137 0.683063654,29.7575143 C0.682973074,29.7624858 0.682973074,29.7674573 0.682973074,29.7724288 L0.682973074,33.3765077 C0.261142092,33.8016177 0,34.3859066 0,35.0301248 L0,37.6025687 C0,38.8992308 1.05706841,39.9541868 2.35643827,39.9541868 L4.61323855,39.9541868 C4.73207949,39.9541868 4.84956173,39.9480402 4.96550411,39.936922 L4.96550411,44.1491531 C4.96550411,45.3243294 5.92239105,46.2804878 7.09857214,46.2804878 L10.9318265,46.2804878 C11.4320997,46.2804878 11.8376263,45.8757159 11.8376263,45.3764852 C11.8376263,44.8772544 11.4320997,44.4725729 10.9318265,44.4725729 L7.09857214,44.4725729 C6.92429625,44.4725729 6.77710377,44.3245121 6.77710377,44.1491531 L6.77710377,39.2418135 C7.67511373,38.5786131 8.2585394,37.5143468 8.2585394,36.3163919 C8.2585394,35.118437 7.67502315,34.0542611 6.77710377,33.3909703 L6.77710377,30.6717311 C6.77710377,30.4978184 6.92429625,30.3509327 7.09857214,30.3509327 L11.3252153,30.3509327 L11.3252153,35.8525946 C11.3252153,36.1867709 11.5099985,36.4936491 11.805561,36.6505683 C11.9389853,36.721435 12.0850908,36.7565068 12.2309246,36.7565068 C12.408099,36.7565068 12.58473,36.7046222 12.7370855,36.602209 L15.0010416,35.0800208 L17.2625521,36.6020282 C17.5402703,36.7889573 17.8986953,36.8076682 18.1942578,36.6507491 C18.4900014,36.4938299 18.6747846,36.1869517 18.6747846,35.852685 L18.6747846,30.3510231 L22.9014278,30.3510231 C23.0770624,30.3510231 23.2254324,30.4979088 23.2254324,30.6718215 L23.2254324,33.3892529 C22.3260637,34.0523629 21.7414605,35.1174427 21.7414605,36.3164823 C21.7414605,37.5155219 22.3260637,38.5806017 23.2254324,39.2437117 L23.2254324,44.1492435 C23.2254324,44.3245121 23.0770624,44.4726633 22.9014278,44.4726633 L19.0681735,44.4726633 C18.5679002,44.4726633 18.1623736,44.8773448 18.1623736,45.3765756 C18.1623736,45.8758063 18.5679002,46.2804878 19.0681735,46.2804878 L22.9014278,46.2804878 C24.0789676,46.2804878 25.037032,45.3244198 25.037032,44.1492435 L25.037032,39.9372836 C25.1521592,39.9483113 25.2687356,39.9543676 25.3867614,39.9543676 L27.6435616,39.9543676 C28.9429315,39.9543676 30,38.899502 30,37.6027495 L30,35.0303056 C30,34.3859969 29.739039,33.8016177 29.317208,33.3765077 L29.317208,33.3765077 Z M8.48190964,4.58834895 C8.48190964,3.055133 9.73182283,1.80782449 11.2681499,1.80782449 L18.7319406,1.80782449 C20.2682677,1.80782449 21.5181808,3.055133 21.5181808,4.58834895 L21.5181808,6.61311239 C19.6198056,5.28815782 17.364998,4.57415753 15.0000452,4.57415753 C12.6350925,4.57415753 10.3802849,5.28806742 8.48190964,6.61311239 L8.48190964,4.58834895 Z M8.21660087,10.6571254 C7.81025906,10.25154 7.81025906,9.59177441 8.21651029,9.18618899 L8.21669145,9.1860986 C10.0286534,7.37791254 12.4377187,6.38207242 15.0000452,6.38207242 C17.5623718,6.38207242 19.971437,7.37791254 21.783399,9.1860986 L21.7835802,9.18618899 C22.189922,9.59177441 22.1898314,10.2516304 21.7846672,10.6560407 C21.3784159,11.0599991 20.7174538,11.0600895 20.3122895,10.6571254 C18.8931729,9.24096607 17.0071165,8.46107058 15.0014945,8.46107058 C12.9958725,8.46107058 11.1098161,9.24096607 9.69178648,10.6560407 C9.28472003,11.0608126 8.62258036,11.0608126 8.21660087,10.6571254 L8.21660087,10.6571254 Z M9.04930266,13.164126 L9.04930266,12.7636929 C9.74767433,12.7404623 10.4392525,12.4648595 10.9715911,11.9354381 C12.0484965,10.8607768 13.4795696,10.2688951 15.0013134,10.2688951 C16.5230571,10.2688951 17.9542208,10.8606864 19.0322132,11.9365228 C19.5632836,12.4646787 20.2534125,12.7397392 20.9507878,12.7631505 L20.9507878,13.1642164 C20.9507878,16.439452 18.2818486,19.1040045 15.0013134,19.1040045 C11.7194194,19.1039142 9.04930266,16.4393616 9.04930266,13.164126 Z M17.5231507,20.4896116 L17.5231507,22.1652842 C17.5231507,23.5529702 16.3918973,24.6819566 15.0013134,24.6819566 C13.6093708,24.6819566 12.4769398,23.5529702 12.4769398,22.1652842 L12.4769398,20.4889789 C13.2689712,20.7615988 14.1177056,20.9117386 15.0013134,20.9117386 C15.8840153,20.9117386 16.7318439,20.7617796 17.5231507,20.4896116 Z M2.35643827,38.1463623 C2.05598446,38.1463623 1.81159967,37.9023964 1.81159967,37.6025687 L1.81159967,35.0301248 C1.81159967,34.7302971 2.05598446,34.4864216 2.35643827,34.4864216 L4.61323855,34.4864216 C5.62438291,34.4864216 6.44703031,35.3073547 6.44703031,36.3163919 C6.44703031,37.3254292 5.62438291,38.1463623 4.61323855,38.1463623 L2.35643827,38.1463623 Z M16.8632755,34.1527876 L15.507746,33.2405593 C15.2017669,33.0345577 14.8011316,33.0344674 14.4951524,33.2403786 L13.1367244,34.1536915 L13.1367244,30.3510231 L16.8632755,30.3510231 L16.8632755,34.1527876 Z M22.9015184,28.5431082 L7.09857214,28.5431082 C5.92239105,28.5431082 4.96550411,29.4980011 4.96550411,30.6717311 L4.96550411,32.6958618 C4.84956173,32.6847437 4.73207949,32.6785971 4.61323855,32.6785971 L2.49448216,32.6785971 L2.49448216,29.7802929 C2.52745328,27.8771056 3.19683935,26.5408522 4.60073851,25.5753835 C5.92909397,24.6619802 7.77049445,24.166817 9.55129692,23.6880147 C9.97349023,23.5744833 10.4029299,23.4582402 10.8282029,23.3363025 C11.3417009,25.1533469 13.0174306,26.4896003 15.0012228,26.4896003 C16.983928,26.4896003 18.6586614,25.1534373 19.171797,23.3363025 C19.5969794,23.4582402 20.0265097,23.5744833 20.4486124,23.6880147 C22.2294149,24.166817 24.0709059,24.6618898 25.3991708,25.5753835 C26.8031606,26.5408522 27.4725466,27.8770152 27.5054272,29.7802929 L27.5054272,32.6785067 L25.3868519,32.6785067 C25.2688262,32.6785067 25.1522498,32.6846533 25.0371226,32.6955907 L25.0371226,30.6717311 C25.0372132,29.4980011 24.0791487,28.5431082 22.9015184,28.5431082 Z M28.1885814,37.6026591 C28.1885814,37.9024868 27.9441966,38.1464527 27.6437428,38.1464527 L25.3868519,38.1464527 C25.0938257,38.1464527 24.8176473,38.0757667 24.5718132,37.9532866 C24.5502552,37.9412646 24.527882,37.930508 24.505237,37.9202034 C23.9382968,37.6085345 23.5531508,37.0067097 23.5531508,36.3164823 C23.5531508,35.3074451 24.3757982,34.486512 25.3868519,34.486512 L27.6436522,34.486512 C27.944106,34.486512 28.1884908,34.7303875 28.1884908,35.0302152 L28.1884908,37.6026591 L28.1885814,37.6026591 Z" id="Shape" fill-rule="nonzero"></path>
                    </g>
                </g>
                <text id="taskforce" fill="#05060F" font-family="ArialRoundedMTBold, Arial Rounded MT Bold" font-size="30" font-weight="normal" letter-spacing="1.1">
                    <tspan x="91" y="54">taskforce</tspan>
                </text>
            </g>
        </g>
    </g>
</svg>